<mxfile host="app.diagrams.net" agent="Mozilla/5.0 (Windows NT 10.0; Win64; x64) AppleWebKit/537.36 (KHTML, like Gecko) Chrome/139.0.0.0 Safari/537.36" version="28.0.7">
  <diagram name="Page-1" id="YV9Xo4mc5tamnmZ0KmAF">
    <mxGraphModel dx="1226" dy="620" grid="1" gridSize="10" guides="1" tooltips="1" connect="1" arrows="1" fold="1" page="1" pageScale="1" pageWidth="850" pageHeight="1100" math="0" shadow="0">
      <root>
        <mxCell id="0" />
        <mxCell id="1" parent="0" />
        <mxCell id="xUHfRqrJZ04aX-F2LbNu-1" value="" style="rounded=0;whiteSpace=wrap;html=1;fillColor=#ffe6cc;strokeColor=#d79b00;" parent="1" vertex="1">
          <mxGeometry x="210" y="30" width="550" height="60" as="geometry" />
        </mxCell>
        <mxCell id="xUHfRqrJZ04aX-F2LbNu-2" value="Student Information System" style="text;html=1;align=center;verticalAlign=middle;whiteSpace=wrap;rounded=0;fontSize=24;" parent="1" vertex="1">
          <mxGeometry x="270" y="35" width="340" height="30" as="geometry" />
        </mxCell>
        <mxCell id="xUHfRqrJZ04aX-F2LbNu-30" style="edgeStyle=orthogonalEdgeStyle;rounded=0;orthogonalLoop=1;jettySize=auto;html=1;exitX=1;exitY=0.5;exitDx=0;exitDy=0;" parent="1" source="xUHfRqrJZ04aX-F2LbNu-4" edge="1">
          <mxGeometry relative="1" as="geometry">
            <mxPoint x="310" y="155" as="targetPoint" />
          </mxGeometry>
        </mxCell>
        <mxCell id="xUHfRqrJZ04aX-F2LbNu-31" style="edgeStyle=orthogonalEdgeStyle;rounded=0;orthogonalLoop=1;jettySize=auto;html=1;exitX=0.5;exitY=1;exitDx=0;exitDy=0;" parent="1" source="xUHfRqrJZ04aX-F2LbNu-4" edge="1">
          <mxGeometry relative="1" as="geometry">
            <mxPoint x="165" y="250" as="targetPoint" />
          </mxGeometry>
        </mxCell>
        <mxCell id="xUHfRqrJZ04aX-F2LbNu-4" value="" style="rounded=0;whiteSpace=wrap;html=1;fillColor=#ffe6cc;strokeColor=#d79b00;" parent="1" vertex="1">
          <mxGeometry x="80" y="130" width="170" height="50" as="geometry" />
        </mxCell>
        <mxCell id="xUHfRqrJZ04aX-F2LbNu-5" value="" style="ellipse;whiteSpace=wrap;html=1;aspect=fixed;fillColor=#ffe6cc;strokeColor=#d79b00;" parent="1" vertex="1">
          <mxGeometry x="305" y="320" width="120" height="120" as="geometry" />
        </mxCell>
        <mxCell id="xUHfRqrJZ04aX-F2LbNu-39" style="edgeStyle=orthogonalEdgeStyle;rounded=0;orthogonalLoop=1;jettySize=auto;html=1;exitX=0.5;exitY=1;exitDx=0;exitDy=0;" parent="1" source="xUHfRqrJZ04aX-F2LbNu-6" edge="1">
          <mxGeometry relative="1" as="geometry">
            <mxPoint x="535" y="310" as="targetPoint" />
          </mxGeometry>
        </mxCell>
        <mxCell id="xUHfRqrJZ04aX-F2LbNu-6" value="" style="ellipse;whiteSpace=wrap;html=1;aspect=fixed;fillColor=#ffe6cc;strokeColor=#d79b00;" parent="1" vertex="1">
          <mxGeometry x="480" y="120" width="110" height="110" as="geometry" />
        </mxCell>
        <mxCell id="xUHfRqrJZ04aX-F2LbNu-7" value="" style="ellipse;whiteSpace=wrap;html=1;aspect=fixed;fillColor=#ffe6cc;strokeColor=#d79b00;" parent="1" vertex="1">
          <mxGeometry x="470" y="320" width="120" height="120" as="geometry" />
        </mxCell>
        <mxCell id="xUHfRqrJZ04aX-F2LbNu-38" style="edgeStyle=orthogonalEdgeStyle;rounded=0;orthogonalLoop=1;jettySize=auto;html=1;" parent="1" source="xUHfRqrJZ04aX-F2LbNu-8" edge="1">
          <mxGeometry relative="1" as="geometry">
            <mxPoint x="375" y="310" as="targetPoint" />
          </mxGeometry>
        </mxCell>
        <mxCell id="xUHfRqrJZ04aX-F2LbNu-8" value="" style="ellipse;whiteSpace=wrap;html=1;aspect=fixed;fillColor=#ffe6cc;strokeColor=#d79b00;" parent="1" vertex="1">
          <mxGeometry x="315" y="115" width="120" height="120" as="geometry" />
        </mxCell>
        <mxCell id="xUHfRqrJZ04aX-F2LbNu-32" value="" style="edgeStyle=orthogonalEdgeStyle;rounded=0;orthogonalLoop=1;jettySize=auto;html=1;" parent="1" source="xUHfRqrJZ04aX-F2LbNu-9" target="xUHfRqrJZ04aX-F2LbNu-10" edge="1">
          <mxGeometry relative="1" as="geometry" />
        </mxCell>
        <mxCell id="xUHfRqrJZ04aX-F2LbNu-9" value="" style="ellipse;whiteSpace=wrap;html=1;aspect=fixed;fillColor=#ffe6cc;strokeColor=#d79b00;" parent="1" vertex="1">
          <mxGeometry x="110" y="270" width="130" height="130" as="geometry" />
        </mxCell>
        <mxCell id="xUHfRqrJZ04aX-F2LbNu-10" value="" style="ellipse;whiteSpace=wrap;html=1;aspect=fixed;fillColor=#ffe6cc;strokeColor=#d79b00;" parent="1" vertex="1">
          <mxGeometry x="110" y="470" width="130" height="130" as="geometry" />
        </mxCell>
        <mxCell id="xUHfRqrJZ04aX-F2LbNu-11" value="" style="rounded=0;whiteSpace=wrap;html=1;fillColor=#ffe6cc;strokeColor=#d79b00;" parent="1" vertex="1">
          <mxGeometry x="80" y="680" width="180" height="40" as="geometry" />
        </mxCell>
        <mxCell id="xUHfRqrJZ04aX-F2LbNu-12" value="" style="rounded=0;whiteSpace=wrap;html=1;fillColor=#ffe6cc;strokeColor=#d79b00;" parent="1" vertex="1">
          <mxGeometry x="290" y="680" width="170" height="40" as="geometry" />
        </mxCell>
        <mxCell id="xUHfRqrJZ04aX-F2LbNu-13" value="" style="rounded=0;whiteSpace=wrap;html=1;fillColor=#ffe6cc;strokeColor=#d79b00;" parent="1" vertex="1">
          <mxGeometry x="490" y="680" width="190" height="40" as="geometry" />
        </mxCell>
        <mxCell id="xUHfRqrJZ04aX-F2LbNu-14" value="" style="rounded=0;whiteSpace=wrap;html=1;fillColor=#ffe6cc;strokeColor=#d79b00;" parent="1" vertex="1">
          <mxGeometry x="640" y="600" width="300" height="40" as="geometry" />
        </mxCell>
        <mxCell id="xUHfRqrJZ04aX-F2LbNu-15" value="" style="rounded=0;whiteSpace=wrap;html=1;fillColor=#ffe6cc;strokeColor=#d79b00;" parent="1" vertex="1">
          <mxGeometry x="640" y="520" width="300" height="40" as="geometry" />
        </mxCell>
        <mxCell id="xUHfRqrJZ04aX-F2LbNu-16" value="" style="rounded=0;whiteSpace=wrap;html=1;fillColor=#ffe6cc;strokeColor=#d79b00;" parent="1" vertex="1">
          <mxGeometry x="640" y="440" width="300" height="40" as="geometry" />
        </mxCell>
        <mxCell id="xUHfRqrJZ04aX-F2LbNu-17" value="" style="rounded=0;whiteSpace=wrap;html=1;fillColor=#ffe6cc;strokeColor=#d79b00;" parent="1" vertex="1">
          <mxGeometry x="640" y="360" width="300" height="50" as="geometry" />
        </mxCell>
        <mxCell id="xUHfRqrJZ04aX-F2LbNu-18" value="" style="rounded=0;whiteSpace=wrap;html=1;fillColor=#ffe6cc;strokeColor=#d79b00;" parent="1" vertex="1">
          <mxGeometry x="640" y="280" width="300" height="40" as="geometry" />
        </mxCell>
        <mxCell id="xUHfRqrJZ04aX-F2LbNu-19" value="" style="rounded=0;whiteSpace=wrap;html=1;fillColor=#ffe6cc;strokeColor=#d79b00;" parent="1" vertex="1">
          <mxGeometry x="640" y="200" width="300" height="40" as="geometry" />
        </mxCell>
        <mxCell id="xUHfRqrJZ04aX-F2LbNu-20" value="" style="rounded=0;whiteSpace=wrap;html=1;fillColor=#ffe6cc;strokeColor=#d79b00;" parent="1" vertex="1">
          <mxGeometry x="640" y="130" width="300" height="40" as="geometry" />
        </mxCell>
        <mxCell id="xUHfRqrJZ04aX-F2LbNu-34" value="" style="endArrow=classic;html=1;rounded=0;" parent="1" edge="1">
          <mxGeometry width="50" height="50" relative="1" as="geometry">
            <mxPoint x="510" y="440" as="sourcePoint" />
            <mxPoint x="210" y="670" as="targetPoint" />
            <Array as="points">
              <mxPoint x="510" y="440" />
            </Array>
          </mxGeometry>
        </mxCell>
        <mxCell id="xUHfRqrJZ04aX-F2LbNu-35" value="" style="endArrow=classic;html=1;rounded=0;" parent="1" edge="1">
          <mxGeometry width="50" height="50" relative="1" as="geometry">
            <mxPoint x="510" y="450" as="sourcePoint" />
            <mxPoint x="390" y="670" as="targetPoint" />
            <Array as="points">
              <mxPoint x="510" y="440" />
            </Array>
          </mxGeometry>
        </mxCell>
        <mxCell id="xUHfRqrJZ04aX-F2LbNu-36" value="" style="endArrow=classic;html=1;rounded=0;entryX=0.198;entryY=-0.01;entryDx=0;entryDy=0;entryPerimeter=0;" parent="1" target="xUHfRqrJZ04aX-F2LbNu-13" edge="1">
          <mxGeometry width="50" height="50" relative="1" as="geometry">
            <mxPoint x="510" y="440" as="sourcePoint" />
            <mxPoint x="550" y="590" as="targetPoint" />
            <Array as="points">
              <mxPoint x="510" y="440" />
            </Array>
          </mxGeometry>
        </mxCell>
        <mxCell id="xUHfRqrJZ04aX-F2LbNu-37" value="" style="endArrow=classic;html=1;rounded=0;" parent="1" edge="1">
          <mxGeometry width="50" height="50" relative="1" as="geometry">
            <mxPoint x="540" y="440" as="sourcePoint" />
            <mxPoint x="630" y="620" as="targetPoint" />
            <Array as="points">
              <mxPoint x="540" y="440" />
            </Array>
          </mxGeometry>
        </mxCell>
        <mxCell id="xUHfRqrJZ04aX-F2LbNu-41" value="" style="endArrow=classic;html=1;rounded=0;exitX=1;exitY=1;exitDx=0;exitDy=0;" parent="1" source="xUHfRqrJZ04aX-F2LbNu-7" edge="1">
          <mxGeometry width="50" height="50" relative="1" as="geometry">
            <mxPoint x="540" y="490" as="sourcePoint" />
            <mxPoint x="630" y="540" as="targetPoint" />
          </mxGeometry>
        </mxCell>
        <mxCell id="xUHfRqrJZ04aX-F2LbNu-42" value="" style="endArrow=classic;html=1;rounded=0;entryX=0;entryY=0.5;entryDx=0;entryDy=0;exitX=0.953;exitY=0.783;exitDx=0;exitDy=0;exitPerimeter=0;" parent="1" source="xUHfRqrJZ04aX-F2LbNu-7" target="xUHfRqrJZ04aX-F2LbNu-16" edge="1">
          <mxGeometry width="50" height="50" relative="1" as="geometry">
            <mxPoint x="540" y="490" as="sourcePoint" />
            <mxPoint x="590" y="440" as="targetPoint" />
          </mxGeometry>
        </mxCell>
        <mxCell id="xUHfRqrJZ04aX-F2LbNu-43" value="" style="endArrow=classic;html=1;rounded=0;entryX=0;entryY=0.5;entryDx=0;entryDy=0;exitX=0.98;exitY=0.63;exitDx=0;exitDy=0;exitPerimeter=0;" parent="1" source="xUHfRqrJZ04aX-F2LbNu-7" target="xUHfRqrJZ04aX-F2LbNu-17" edge="1">
          <mxGeometry width="50" height="50" relative="1" as="geometry">
            <mxPoint x="540" y="490" as="sourcePoint" />
            <mxPoint x="590" y="440" as="targetPoint" />
            <Array as="points" />
          </mxGeometry>
        </mxCell>
        <mxCell id="xUHfRqrJZ04aX-F2LbNu-44" value="" style="endArrow=classic;html=1;rounded=0;" parent="1" source="xUHfRqrJZ04aX-F2LbNu-7" edge="1">
          <mxGeometry width="50" height="50" relative="1" as="geometry">
            <mxPoint x="540" y="230" as="sourcePoint" />
            <mxPoint x="630" y="300" as="targetPoint" />
          </mxGeometry>
        </mxCell>
        <mxCell id="xUHfRqrJZ04aX-F2LbNu-45" value="" style="endArrow=classic;html=1;rounded=0;entryX=0;entryY=0.5;entryDx=0;entryDy=0;" parent="1" source="xUHfRqrJZ04aX-F2LbNu-7" target="xUHfRqrJZ04aX-F2LbNu-19" edge="1">
          <mxGeometry width="50" height="50" relative="1" as="geometry">
            <mxPoint x="540" y="230" as="sourcePoint" />
            <mxPoint x="590" y="180" as="targetPoint" />
          </mxGeometry>
        </mxCell>
        <mxCell id="xUHfRqrJZ04aX-F2LbNu-46" value="" style="endArrow=classic;html=1;rounded=0;entryX=0;entryY=0.5;entryDx=0;entryDy=0;" parent="1" source="xUHfRqrJZ04aX-F2LbNu-7" target="xUHfRqrJZ04aX-F2LbNu-20" edge="1">
          <mxGeometry width="50" height="50" relative="1" as="geometry">
            <mxPoint x="540" y="230" as="sourcePoint" />
            <mxPoint x="590" y="180" as="targetPoint" />
          </mxGeometry>
        </mxCell>
        <mxCell id="7QfZ63NbMIyV5IIt6Gyr-1" value="Admin" style="text;html=1;align=center;verticalAlign=middle;whiteSpace=wrap;rounded=0;fontStyle=1;fontSize=22;" vertex="1" parent="1">
          <mxGeometry x="102.5" y="132.5" width="125" height="45" as="geometry" />
        </mxCell>
        <mxCell id="7QfZ63NbMIyV5IIt6Gyr-2" value="Manage Report" style="text;html=1;align=center;verticalAlign=middle;whiteSpace=wrap;rounded=0;fontSize=13;fontStyle=1" vertex="1" parent="1">
          <mxGeometry x="711.25" y="605" width="157.5" height="30" as="geometry" />
        </mxCell>
        <mxCell id="7QfZ63NbMIyV5IIt6Gyr-3" value="Check Credentials" style="text;html=1;align=center;verticalAlign=middle;whiteSpace=wrap;rounded=0;fontStyle=1;fontSize=20;" vertex="1" parent="1">
          <mxGeometry x="327.5" y="365" width="75" height="30" as="geometry" />
        </mxCell>
        <mxCell id="7QfZ63NbMIyV5IIt6Gyr-4" value="Send Email to user" style="text;html=1;align=center;verticalAlign=middle;whiteSpace=wrap;rounded=0;fontStyle=1;fontSize=21;" vertex="1" parent="1">
          <mxGeometry x="128.75" y="520" width="92.5" height="30" as="geometry" />
        </mxCell>
        <mxCell id="7QfZ63NbMIyV5IIt6Gyr-5" value="Forgot password" style="text;html=1;align=center;verticalAlign=middle;whiteSpace=wrap;rounded=0;fontStyle=1;fontSize=22;" vertex="1" parent="1">
          <mxGeometry x="132.5" y="320" width="85" height="30" as="geometry" />
        </mxCell>
        <mxCell id="7QfZ63NbMIyV5IIt6Gyr-6" value="Check roles of access" style="text;html=1;align=center;verticalAlign=middle;whiteSpace=wrap;rounded=0;fontStyle=1;fontSize=19;" vertex="1" parent="1">
          <mxGeometry x="497.5" y="160" width="75" height="30" as="geometry" />
        </mxCell>
        <mxCell id="7QfZ63NbMIyV5IIt6Gyr-7" value="Login to system" style="text;html=1;align=center;verticalAlign=middle;whiteSpace=wrap;rounded=0;fontStyle=1;fontSize=20;" vertex="1" parent="1">
          <mxGeometry x="335" y="160" width="85" height="30" as="geometry" />
        </mxCell>
        <mxCell id="7QfZ63NbMIyV5IIt6Gyr-8" value="Manage Teacher Profiles" style="text;html=1;align=center;verticalAlign=middle;whiteSpace=wrap;rounded=0;fontSize=15;fontStyle=1" vertex="1" parent="1">
          <mxGeometry x="720" y="525" width="130" height="30" as="geometry" />
        </mxCell>
        <mxCell id="7QfZ63NbMIyV5IIt6Gyr-9" value="Manage Fees Details" style="text;html=1;align=center;verticalAlign=middle;whiteSpace=wrap;rounded=0;fontSize=16;fontStyle=1" vertex="1" parent="1">
          <mxGeometry x="690" y="445" width="230" height="30" as="geometry" />
        </mxCell>
        <mxCell id="7QfZ63NbMIyV5IIt6Gyr-10" value="Manage Student Details" style="text;html=1;align=center;verticalAlign=middle;whiteSpace=wrap;rounded=0;fontSize=15;fontStyle=1" vertex="1" parent="1">
          <mxGeometry x="720" y="370" width="140" height="30" as="geometry" />
        </mxCell>
        <mxCell id="7QfZ63NbMIyV5IIt6Gyr-11" value="Manage Class Details" style="text;html=1;align=center;verticalAlign=middle;whiteSpace=wrap;rounded=0;fontStyle=1;fontSize=14;" vertex="1" parent="1">
          <mxGeometry x="707.5" y="285" width="180" height="30" as="geometry" />
        </mxCell>
        <mxCell id="7QfZ63NbMIyV5IIt6Gyr-12" value="Manage Attendence Details" style="text;html=1;align=center;verticalAlign=middle;whiteSpace=wrap;rounded=0;fontStyle=1;fontSize=13;" vertex="1" parent="1">
          <mxGeometry x="707.5" y="205" width="165" height="30" as="geometry" />
        </mxCell>
        <mxCell id="7QfZ63NbMIyV5IIt6Gyr-13" value="Manage Timetable Details" style="text;html=1;align=center;verticalAlign=middle;whiteSpace=wrap;rounded=0;fontStyle=1;fontSize=14;" vertex="1" parent="1">
          <mxGeometry x="720" y="135" width="130" height="30" as="geometry" />
        </mxCell>
        <mxCell id="7QfZ63NbMIyV5IIt6Gyr-16" value="Manage System Admin" style="text;html=1;align=center;verticalAlign=middle;whiteSpace=wrap;rounded=0;fontStyle=1;fontSize=14;" vertex="1" parent="1">
          <mxGeometry x="125" y="685" width="100" height="30" as="geometry" />
        </mxCell>
        <mxCell id="7QfZ63NbMIyV5IIt6Gyr-17" value="Manage Roles of User" style="text;html=1;align=center;verticalAlign=middle;whiteSpace=wrap;rounded=0;fontSize=13;fontStyle=1" vertex="1" parent="1">
          <mxGeometry x="335" y="685" width="90" height="30" as="geometry" />
        </mxCell>
        <mxCell id="7QfZ63NbMIyV5IIt6Gyr-18" value="Manage User permission" style="text;html=1;align=center;verticalAlign=middle;whiteSpace=wrap;rounded=0;fontStyle=1;fontSize=14;" vertex="1" parent="1">
          <mxGeometry x="540" y="685" width="90" height="30" as="geometry" />
        </mxCell>
        <mxCell id="7QfZ63NbMIyV5IIt6Gyr-19" value="Manage Modules" style="text;html=1;align=center;verticalAlign=middle;whiteSpace=wrap;rounded=0;fontStyle=1;fontSize=20;" vertex="1" parent="1">
          <mxGeometry x="490" y="365" width="85" height="30" as="geometry" />
        </mxCell>
      </root>
    </mxGraphModel>
  </diagram>
</mxfile>
